<svg xmlns="http://www.w3.org/2000/svg" width="420" height="298" viewBox="0 0 420 298" role="img">
<style>
  .title { font: 600 16px 'Segoe UI', Ubuntu, Sans-Serif; fill: #FFC300; }
  .label { font: 400 12px 'Segoe UI', Ubuntu, Sans-Serif; fill: #c9d1d9; }
  .pct { font: 600 12px 'Segoe UI', Ubuntu, Sans-Serif; fill: #f0f6fc; }
  .border { stroke: #30363d; fill: #0d1117; }
</style>
<rect class="border" x="0.5" y="0.5" width="419" height="297" rx="8"/>
<text class="title" x="20" y="32">Top Languages</text>
<rect x="20" y="52" width="380" height="10" rx="5" fill="#21262d"/>
<rect x="20" y="52" width="207" height="10" fill="#FFC300"/>
<rect x="227" y="52" width="67" height="10" fill="#58a6ff"/>
<rect x="294" y="52" width="66" height="10" fill="#3fb950"/>
<rect x="360" y="52" width="18" height="10" fill="#f78166"/>
<rect x="378" y="52" width="12" height="10" fill="#d2a8ff"/>
<rect x="390" y="52" width="7" height="10" fill="#79c0ff"/>
<rect x="397" y="52" width="2" height="10" fill="#ffa198"/>
<rect x="399" y="52" width="2" height="10" fill="#7ee787"/>
<circle cx="28" cy="84" r="5" fill="#FFC300"/>
<text class="label" x="42" y="88">Python</text>
<text class="pct" x="400" y="88" text-anchor="end">54.6%</text>
<circle cx="28" cy="110" r="5" fill="#58a6ff"/>
<text class="label" x="42" y="114">HTML</text>
<text class="pct" x="400" y="114" text-anchor="end">17.7%</text>
<circle cx="28" cy="136" r="5" fill="#3fb950"/>
<text class="label" x="42" y="140">Java</text>
<text class="pct" x="400" y="140" text-anchor="end">17.4%</text>
<circle cx="28" cy="162" r="5" fill="#f78166"/>
<text class="label" x="42" y="166">Shell</text>
<text class="pct" x="400" y="166" text-anchor="end">4.9%</text>
<circle cx="28" cy="188" r="5" fill="#d2a8ff"/>
<text class="label" x="42" y="192">JavaScript</text>
<text class="pct" x="400" y="192" text-anchor="end">3.2%</text>
<circle cx="28" cy="214" r="5" fill="#79c0ff"/>
<text class="label" x="42" y="218">CSS</text>
<text class="pct" x="400" y="218" text-anchor="end">1.9%</text>
<circle cx="28" cy="240" r="5" fill="#ffa198"/>
<text class="label" x="42" y="244">Makefile</text>
<text class="pct" x="400" y="244" text-anchor="end">0.2%</text>
<circle cx="28" cy="266" r="5" fill="#7ee787"/>
<text class="label" x="42" y="270">XSLT</text>
<text class="pct" x="400" y="270" text-anchor="end">0.1%</text>
</svg>
